HIERARCHY
ROOT Hips
{
	OFFSET 45.813999 -10.164816 100.089996
	CHANNELS 6 Xposition Yposition Zposition Xrotation Yrotation Zrotation
	JOINT spine
	{
		OFFSET 0.000000 -0.507026 8.817039
		CHANNELS 3 Xrotation Yrotation Zrotation
		JOINT spine1
		{
			OFFSET 0.000000 -0.000001 10.776604
			CHANNELS 3 Xrotation Yrotation Zrotation
			JOINT spine2
			{
				OFFSET 0.000000 -0.000002 10.325897
				CHANNELS 3 Xrotation Yrotation Zrotation
				JOINT Neck
				{
					OFFSET 0.000000 -1.263955 26.511002
					CHANNELS 3 Xrotation Yrotation Zrotation
					JOINT Head
					{
						OFFSET 0.000000 -0.000001 8.009659
						CHANNELS 3 Xrotation Yrotation Zrotation
						End Site
						{
							OFFSET 0.000000 6.393857 19.387894
						}
					}
				}
				JOINT RightShoulder
				{
					OFFSET -4.347950 0.605420 11.151199
					CHANNELS 3 Xrotation Yrotation Zrotation
					JOINT RightArm
					{
						OFFSET 0.000000 -0.000003 14.625793
						CHANNELS 3 Xrotation Yrotation Zrotation
						JOINT RightArmRoll
						{
							OFFSET 0.000000 -0.000001 7.383392
							CHANNELS 3 Xrotation Yrotation Zrotation
							JOINT RightForeArm
							{
								OFFSET 0.000000 -0.000004 21.505203
								CHANNELS 3 Xrotation Yrotation Zrotation
								JOINT RightForeArmRoll
								{
									OFFSET 0.000000 -0.000001 8.285324
									CHANNELS 3 Xrotation Yrotation Zrotation
									JOINT RightHand
									{
										OFFSET 0.000000 -0.000003 16.626801
										CHANNELS 3 Xrotation Yrotation Zrotation
										End Site
										{
											OFFSET 0.000000 0.000000 0.100006
										}
									}
								}
							}
						}
					}
				}
				JOINT LeftShoulder
				{
					OFFSET 4.347950 0.605420 11.151199
					CHANNELS 3 Xrotation Yrotation Zrotation
					JOINT LeftArm
					{
						OFFSET 0.000000 -0.000003 14.625793
						CHANNELS 3 Xrotation Yrotation Zrotation
						JOINT LeftArmRoll
						{
							OFFSET 0.000000 -0.000001 7.383392
							CHANNELS 3 Xrotation Yrotation Zrotation
							JOINT LeftForeArm
							{
								OFFSET 0.000000 -0.000004 21.505203
								CHANNELS 3 Xrotation Yrotation Zrotation
								JOINT LeftForeArmRoll
								{
									OFFSET 0.000000 -0.000001 8.285324
									CHANNELS 3 Xrotation Yrotation Zrotation
									JOINT LeftHand
									{
										OFFSET 0.000000 -0.000003 16.626801
										CHANNELS 3 Xrotation Yrotation Zrotation
										End Site
										{
											OFFSET 0.000000 0.000000 0.100006
										}
									}
								}
							}
						}
					}
				}
			}
		}
	}
	JOINT RightUpLeg
	{
		OFFSET -7.815102 1.202170 -1.433090
		CHANNELS 3 Xrotation Yrotation Zrotation
		JOINT RightUpLegRoll
		{
			OFFSET 0.000000 -0.000003 19.495895
			CHANNELS 3 Xrotation Yrotation Zrotation
			JOINT RightLeg
			{
				OFFSET 0.000000 0.000004 -24.142700
				CHANNELS 3 Xrotation Yrotation Zrotation
				JOINT RightLegRoll
				{
					OFFSET 0.000000 -0.000004 24.221703
					CHANNELS 3 Xrotation Yrotation Zrotation
					JOINT RightFoot
					{
						OFFSET 0.000000 -0.000004 20.160500
						CHANNELS 3 Xrotation Yrotation Zrotation
						JOINT RightToeBase
						{
							OFFSET 0.000000 -0.000003 16.853195
							CHANNELS 3 Xrotation Yrotation Zrotation
							End Site
							{
								OFFSET 0.007145 0.940780 8.161865
							}
						}
					}
				}
			}
		}
	}
	JOINT LeftUpLeg
	{
		OFFSET 7.815102 1.202170 -1.433090
		CHANNELS 3 Xrotation Yrotation Zrotation
		JOINT LeftUpLegRoll
		{
			OFFSET 0.000000 -0.000003 19.496002
			CHANNELS 3 Xrotation Yrotation Zrotation
			JOINT LeftLeg
			{
				OFFSET 0.000000 -0.000004 24.142593
				CHANNELS 3 Xrotation Yrotation Zrotation
				JOINT LeftLegRoll
				{
					OFFSET 0.000000 -0.000004 24.445602
					CHANNELS 3 Xrotation Yrotation Zrotation
					JOINT LeftFoot
					{
						OFFSET 0.000000 -0.000004 19.936600
						CHANNELS 3 Xrotation Yrotation Zrotation
						JOINT LeftToeBase
						{
							OFFSET 0.000000 -0.000003 16.853195
							CHANNELS 3 Xrotation Yrotation Zrotation
							End Site
							{
								OFFSET -0.032013 0.940780 8.161865
							}
						}
					}
				}
			}
		}
	}
}
MOTION
Frames: 7
Frame Time: 0.041667
49.746696 -13.575214 99.995293 -0.300742 -1.586168 39.821372 -0.821290 0.005620 0.717423 2.360250 0.033883 1.424211 4.005110 0.050940 1.423721 8.891895 31.372029 8.710597 -7.031452 -12.562956 7.681127 11.974949 -33.632435 19.518958 145.273302 -13.767002 97.794785 -0.000001 -0.000003 0.000007 64.660595 -15.748797 8.469891 -0.000007 0.000016 -3.005940 -5.000169 -7.998733 0.000067 -37.519018 59.556176 44.213481 0.764147 80.191243 31.527719 -0.000010 0.000009 0.000003 76.540056 4.569290 -1.146528 0.000012 -0.000012 2.999990 -4.999692 7.999665 0.000016 -3.863055 -172.888043 2.275389 -179.999991 0.000005 -1.250997 160.669122 -0.802084 -0.797359 -0.000004 0.000000 0.715694 76.114385 6.673327 2.239529 26.307811 -7.341798 1.237686 -8.977132 174.775416 2.596690 -0.000004 -0.000004 -0.880832 -12.509152 1.566293 0.798055 -0.000004 -0.000004 -0.073910 70.350170 -5.813353 -4.920981 25.456955 7.355627 -0.000007 
49.700897 -13.619215 99.996597 -0.300616 -1.601487 39.899096 -0.826348 0.001568 0.714571 2.350180 0.024517 1.419250 3.995041 0.041514 1.418869 8.997252 31.210734 8.689642 -7.064682 -12.398416 7.686732 12.022362 -33.876922 19.516825 145.283574 -14.226667 98.005811 -0.000000 -0.000005 0.000007 64.622428 -15.721439 8.468620 -0.000008 0.000014 -3.005940 -5.000168 -7.998729 0.000068 -37.465876 59.542283 44.153085 0.384312 80.343181 31.674924 -0.000012 0.000006 0.000003 76.542501 4.526736 -1.092955 0.000011 -0.000015 2.999991 -4.999695 7.999665 0.000016 -3.807470 -172.889560 2.289176 -179.999991 0.000004 -1.251002 160.727424 -0.824086 -0.799143 -0.000005 -0.000000 0.712698 76.110014 6.674194 2.236991 26.303769 -7.341797 1.232107 -8.964508 174.777219 2.609113 -0.000004 -0.000006 -0.880760 -12.466028 1.548334 0.794643 -0.000005 -0.000004 -0.073900 70.326244 -5.817416 -4.910340 25.456957 7.355626 -0.000005 
49.654999 -13.645312 99.995392 -0.300091 -1.616767 39.976933 -0.831509 -0.002424 0.711706 2.339910 0.015247 1.414307 3.984770 0.032186 1.414037 9.102941 31.049664 8.669201 -7.098376 -12.233691 7.692238 12.071230 -34.122334 19.516005 145.301715 -14.684353 98.219964 0.000001 -0.000005 0.000009 64.584575 -15.694083 8.467516 -0.000007 0.000013 -3.005941 -5.000168 -7.998733 0.000066 -37.413106 59.528609 44.093027 -0.011733 80.492994 31.833650 -0.000014 0.000008 0.000003 76.540616 4.486721 -1.041107 0.000010 -0.000012 2.999992 -4.999691 7.999665 0.000014 -3.752460 -172.890106 2.303267 -179.999991 0.000005 -1.250999 160.785617 -0.847042 -0.801202 -0.000005 -0.000001 0.709735 76.105758 6.675087 2.234350 26.299635 -7.341807 1.226347 -8.952071 174.779008 2.621639 -0.000005 -0.000006 -0.880660 -12.422805 1.530535 0.791286 -0.000004 -0.000003 -0.073912 70.302406 -5.821402 -4.899882 25.456955 7.355627 -0.000005 
49.622002 -13.645217 100.003998 -0.299295 -1.632035 40.054978 -0.836738 -0.006372 0.708847 2.329510 0.006046 1.409378 3.974371 0.022926 1.409213 9.208803 30.888960 8.649253 -7.132397 -12.068774 7.697719 12.121252 -34.368231 19.516161 145.326755 -15.141682 98.436454 -0.000000 -0.000007 0.000009 64.546975 -15.666810 8.466844 -0.000008 0.000017 -3.005941 -5.000170 -7.998731 0.000066 -37.360397 59.515106 44.033092 -0.423933 80.641141 32.005481 -0.000011 0.000008 0.000005 76.535528 4.448494 -0.990425 0.000011 -0.000013 2.999992 -4.999691 7.999665 0.000016 -3.697846 -172.890680 2.317609 -179.999991 0.000005 -1.250002 160.843811 -0.870016 -0.803215 -0.000004 0.000000 0.706785 76.101619 6.675968 2.231806 26.295492 -7.341805 1.220480 -8.939755 174.780825 2.634220 -0.000005 -0.000004 -0.880533 -12.379486 1.512837 0.787979 -0.000005 -0.000003 -0.073932 70.278583 -5.825387 -4.889624 25.456948 7.355623 -0.000005 
49.582596 -13.662815 100.008003 -0.298340 -1.647276 40.133126 -0.842006 -0.010295 0.705980 2.319019 -0.003115 1.404443 3.963890 0.013707 1.404391 9.314630 30.728314 8.629942 -7.166608 -11.903777 7.703299 12.172187 -34.614620 19.517368 145.357682 -15.598610 98.655198 -0.000000 -0.000004 0.000007 64.509491 -15.639593 8.466296 -0.000008 0.000015 -3.005939 -5.000169 -7.998730 0.000066 -37.307750 59.501582 43.973233 -0.852262 80.788393 32.191771 -0.000012 0.000008 0.000002 76.528663 4.411309 -0.940452 0.000013 -0.000013 2.999990 -4.999695 7.999664 0.000015 -3.643461 -172.890256 2.332035 -179.999991 0.000005 -1.249999 160.901785 -0.893002 -0.805188 -0.000004 -0.000000 0.703853 76.097569 6.676828 2.229250 26.291251 -7.341813 1.214528 -8.927505 174.782628 2.646857 -0.000006 -0.000005 -0.880395 -12.336167 1.495198 0.784713 -0.000004 -0.000003 -0.073963 70.254738 -5.829365 -4.879369 25.456955 7.355620 -0.000006 
49.545696 -13.669215 100.010002 -0.297345 -1.662518 40.211175 -0.847281 -0.014212 0.703113 2.308520 -0.012265 1.399512 3.953381 0.004498 1.399570 9.420228 30.567753 8.611263 -7.200897 -11.738700 7.709058 12.223686 -34.860941 19.519024 145.393622 -16.055864 98.876113 -0.000001 -0.000005 0.000006 64.472054 -15.612361 8.465876 -0.000008 0.000018 -3.005939 -5.000168 -7.998730 0.000067 -37.255130 59.488031 43.913397 -1.296778 80.935413 32.393863 -0.000008 0.000010 0.000002 76.521444 4.374340 -0.890545 0.000014 -0.000013 2.999993 -4.999694 7.999666 0.000017 -3.589134 -172.889833 2.346506 -179.999991 0.000004 -1.250003 160.959774 -0.915048 -0.806779 -0.000004 -0.000000 0.700916 76.093546 6.677714 2.226597 26.287004 -7.341804 1.208552 -8.915261 174.785415 2.659342 -0.000005 -0.000004 -0.880248 -12.292752 1.477564 0.781475 -0.000005 -0.000004 -0.073996 70.230990 -5.833275 -4.869297 25.456952 7.355620 -0.000005 
49.474602 -13.811816 100.016991 -0.296435 -1.677766 40.289227 -0.852536 -0.018142 0.700250 2.298050 -0.021433 1.394580 3.942919 -0.004728 1.394742 9.525411 30.407090 8.593440 -7.235105 -11.573747 7.715079 12.275604 -35.107118 19.521142 145.433756 -16.512551 99.099761 0.000001 -0.000005 0.000004 64.434475 -15.585138 8.465348 -0.000008 0.000013 -3.005939 -5.000168 -7.998735 0.000066 -37.202569 59.474460 43.853622 -1.757655 81.082965 32.613521 -0.000010 0.000008 0.000003 76.515215 4.336854 -0.840442 0.000013 -0.000015 2.999991 -4.999696 7.999664 0.000013 -3.534687 -172.890420 2.360960 -179.999991 0.000005 -1.249006 161.017857 -0.938064 -0.808660 -0.000004 0.000001 0.697982 76.089414 6.678608 2.224049 26.282761 -7.341810 1.202627 -8.902994 174.787218 2.671960 -0.000005 -0.000005 -0.880115 -12.249438 1.459904 0.778258 -0.000004 -0.000003 -0.074021 70.207166 -5.837272 -4.859147 25.456952 7.355622 -0.000005 
